<!DOCTYPE svg PUBLIC "-//W3C//DTD SVG 1.1//EN" "http://www.w3.org/Graphics/SVG/1.1/DTD/svg11.dtd">
<!-- Uploaded to: SVG Repo, www.svgrepo.com, Transformed by: SVG Repo Mixer Tools -->
<svg fill="#ffffff" height="800px" width="800px" version="1.1" id="Capa_1" xmlns="http://www.w3.org/2000/svg" xmlns:xlink="http://www.w3.org/1999/xlink" viewBox="0 0 611.998 611.998" xml:space="preserve" stroke="#ffffff">
<g id="SVGRepo_bgCarrier" stroke-width="0"/>
<g id="SVGRepo_tracerCarrier" stroke-linecap="round" stroke-linejoin="round"/>
<g id="SVGRepo_iconCarrier"> <g> <g> <path d="M297.906,432.863c-4.992-3.265-9.462-6.771-13.863-10.799c-4.023-4.4-7.527-8.881-10.783-13.871 c-2.5-3.831-4.208-8.097-6.409-12.09c-2.5,5.443-2.675,11.278-1.665,17.091c1.052,6.961,5.916,14.137,9.751,17.974 c3.835,3.837,11.03,8.689,17.98,9.734c3.338,0.583,6.644,0.853,10.025,0.393c1.63-0.224,3.14-0.557,4.69-1.11 c0.168-0.061,2.552-0.846,2.371-0.929C303.36,436.203,300.044,434.26,297.906,432.863z"/> <path d="M371.181,36.317c5.275-3.571,8.745-9.613,8.745-16.464C379.926,8.89,371.036,0,360.067,0H251.933 c-10.969,0-19.855,8.89-19.855,19.854c0,6.853,3.47,12.895,8.749,16.464c-5.996,86.746-63.638,134.659-63.638,264.105v219.935 c0,50.615,41.028,91.64,91.642,91.64h37.168h37.172c50.611,0,91.639-41.026,91.639-91.64V300.424 C434.812,170.978,377.173,123.063,371.181,36.317z M306.001,463.47c-33.577,0-60.892-27.317-60.892-60.894 c0-31.145,48.4-85.98,53.919-92.13c1.779-1.98,4.312-3.111,6.974-3.111s5.195,1.131,6.972,3.111 c5.521,6.15,53.921,60.987,53.921,92.13C366.893,436.153,339.576,463.47,306.001,463.47z"/> </g> </g> </g>
</svg>